<svg xmlns="http://www.w3.org/2000/svg" width="512.24" height="98.459" viewBox="0 0 512.24 98.459">
  <g id="Group_4028" data-name="Group 4028" transform="translate(0.36 0.36)" opacity="0.59">
    <path id="Path_2080" data-name="Path 2080" d="M971.839,488.414l-13.678-13.678,35.191-35.191-35.191-35.191,13.678-13.678,48.869,48.869Z" transform="translate(-958.161 -390.676)" fill="none" stroke="#c7c7c7" stroke-miterlimit="10" stroke-width="0.51"/>
    <path id="Path_2081" data-name="Path 2081" d="M982.39,439.545,947.2,404.354l13.678-13.678,48.869,48.869-48.869,48.869L947.2,474.736Z" transform="translate(-919.139 -390.676)" fill="none" stroke="#c7c7c7" stroke-miterlimit="10" stroke-width="0.51" opacity="0.938"/>
    <path id="Path_2082" data-name="Path 2082" d="M971.429,439.545l-35.19-35.191,13.678-13.678,48.869,48.869-48.869,48.869-13.678-13.678Z" transform="translate(-880.117 -390.676)" fill="none" stroke="#c7c7c7" stroke-miterlimit="10" stroke-width="0.51" opacity="0.875"/>
    <path id="Path_2083" data-name="Path 2083" d="M960.468,439.545l-35.191-35.191,13.678-13.678,48.869,48.869-48.869,48.869-13.678-13.678Z" transform="translate(-841.095 -390.676)" fill="none" stroke="#c7c7c7" stroke-miterlimit="10" stroke-width="0.51" opacity="0.813"/>
    <path id="Path_2084" data-name="Path 2084" d="M949.506,439.545l-35.19-35.191,13.678-13.678,48.869,48.869-48.869,48.869-13.678-13.678Z" transform="translate(-802.073 -390.676)" fill="none" stroke="#c7c7c7" stroke-miterlimit="10" stroke-width="0.51" opacity="0.75"/>
    <path id="Path_2085" data-name="Path 2085" d="M938.545,439.545l-35.191-35.191,13.678-13.678L965.9,439.545l-48.869,48.869-13.678-13.678Z" transform="translate(-763.051 -390.676)" fill="none" stroke="#c7c7c7" stroke-miterlimit="10" stroke-width="0.51" opacity="0.688"/>
    <path id="Path_2086" data-name="Path 2086" d="M927.584,439.545l-35.191-35.191,13.678-13.678,48.869,48.869-48.869,48.869-13.678-13.678Z" transform="translate(-724.029 -390.676)" fill="none" stroke="#c7c7c7" stroke-miterlimit="10" stroke-width="0.51" opacity="0.625"/>
    <path id="Path_2087" data-name="Path 2087" d="M916.623,439.545l-35.191-35.191,13.678-13.678,48.869,48.869L895.11,488.414l-13.678-13.678Z" transform="translate(-685.007 -390.676)" fill="none" stroke="#c7c7c7" stroke-miterlimit="10" stroke-width="0.51" opacity="0.563"/>
    <path id="Path_2088" data-name="Path 2088" d="M905.662,439.545l-35.191-35.191,13.678-13.678,48.869,48.869-48.869,48.869-13.678-13.678Z" transform="translate(-645.985 -390.676)" fill="none" stroke="#c7c7c7" stroke-miterlimit="10" stroke-width="0.51" opacity="0.5"/>
    <path id="Path_2089" data-name="Path 2089" d="M894.7,439.545l-35.19-35.191,13.678-13.678,48.869,48.869-48.869,48.869L859.51,474.736Z" transform="translate(-606.963 -390.676)" fill="none" stroke="#c7c7c7" stroke-miterlimit="10" stroke-width="0.51" opacity="0.438"/>
    <path id="Path_2090" data-name="Path 2090" d="M883.739,439.545l-35.191-35.191,13.678-13.678L911.1,439.545l-48.869,48.869-13.678-13.678Z" transform="translate(-567.941 -390.676)" fill="none" stroke="#c7c7c7" stroke-miterlimit="10" stroke-width="0.51" opacity="0.375"/>
    <path id="Path_2091" data-name="Path 2091" d="M872.778,439.545l-35.191-35.191,13.678-13.678,48.869,48.869-48.869,48.869-13.678-13.678Z" transform="translate(-528.919 -390.676)" fill="none" stroke="#c7c7c7" stroke-miterlimit="10" stroke-width="0.51" opacity="0.313"/>
    <path id="Path_2092" data-name="Path 2092" d="M861.817,439.545l-35.191-35.191L840.3,390.676l48.869,48.869L840.3,488.414l-13.678-13.678Z" transform="translate(-489.897 -390.676)" fill="none" stroke="#c7c7c7" stroke-miterlimit="10" stroke-width="0.51" opacity="0.25"/>
    <path id="Path_2093" data-name="Path 2093" d="M850.855,439.545l-35.19-35.191,13.678-13.678,48.869,48.869-48.869,48.869-13.678-13.678Z" transform="translate(-450.875 -390.676)" fill="none" stroke="#c7c7c7" stroke-miterlimit="10" stroke-width="0.51" opacity="0.188"/>
    <path id="Path_2094" data-name="Path 2094" d="M839.894,439.545,804.7,404.354l13.678-13.678,48.869,48.869-48.869,48.869L804.7,474.736Z" transform="translate(-411.853 -390.676)" fill="none" stroke="#c7c7c7" stroke-miterlimit="10" stroke-width="0.51" opacity="0.125"/>
    <path id="Path_2095" data-name="Path 2095" d="M828.932,439.545l-35.19-35.191,13.678-13.678,48.869,48.869L807.42,488.414l-13.678-13.678Z" transform="translate(-372.831 -390.676)" fill="none" stroke="#c7c7c7" stroke-miterlimit="10" stroke-width="0.51" opacity="0.063"/>
    <path id="Path_2096" data-name="Path 2096" d="M796.459,488.414l-13.678-13.678,35.191-35.191-35.191-35.191,13.678-13.678,48.869,48.869Z" transform="translate(-333.809 -390.676)" fill="none" stroke="#c7c7c7" stroke-miterlimit="10" stroke-width="0.51" opacity="0"/>
  </g>
</svg>
